<svg xmlns="http://www.w3.org/2000/svg" width="920" height="520" viewBox="0 0 920 520" role="img" aria-label="WikiText perplexity by layer at 100% vector compression"><rect width="100%" height="100%" fill="#ffffff"/><text x="64" y="28" font-size="15" font-family="system-ui,sans-serif" fill="#212529">Per layer resiliency run on Llama 3.1 8B Instruct using WikiText with Per-tile</text><rect x="64" y="387.9" width="828" height="76.1" fill="#d8f3dc"/><line x1="64" y1="464.0" x2="892" y2="464.0" stroke="#e9ecef" stroke-width="1"/><text x="56" y="468.0" text-anchor="end" font-size="11" font-family="system-ui,sans-serif" fill="#495057">8.57</text><line x1="64" y1="362.5" x2="892" y2="362.5" stroke="#e9ecef" stroke-width="1"/><text x="56" y="366.5" text-anchor="end" font-size="11" font-family="system-ui,sans-serif" fill="#495057">9.50</text><line x1="64" y1="261.0" x2="892" y2="261.0" stroke="#e9ecef" stroke-width="1"/><text x="56" y="265.0" text-anchor="end" font-size="11" font-family="system-ui,sans-serif" fill="#495057">10.43</text><line x1="64" y1="159.5" x2="892" y2="159.5" stroke="#e9ecef" stroke-width="1"/><text x="56" y="163.5" text-anchor="end" font-size="11" font-family="system-ui,sans-serif" fill="#495057">11.36</text><line x1="64" y1="58.0" x2="892" y2="58.0" stroke="#e9ecef" stroke-width="1"/><text x="56" y="62.0" text-anchor="end" font-size="11" font-family="system-ui,sans-serif" fill="#495057">12.29</text><text x="64.0" y="492" text-anchor="middle" font-size="11" font-family="system-ui,sans-serif" fill="#495057">0</text><text x="117.4" y="492" text-anchor="middle" font-size="11" font-family="system-ui,sans-serif" fill="#495057">2</text><text x="170.8" y="492" text-anchor="middle" font-size="11" font-family="system-ui,sans-serif" fill="#495057">4</text><text x="224.3" y="492" text-anchor="middle" font-size="11" font-family="system-ui,sans-serif" fill="#495057">6</text><text x="277.7" y="492" text-anchor="middle" font-size="11" font-family="system-ui,sans-serif" fill="#495057">8</text><text x="331.1" y="492" text-anchor="middle" font-size="11" font-family="system-ui,sans-serif" fill="#495057">10</text><text x="384.5" y="492" text-anchor="middle" font-size="11" font-family="system-ui,sans-serif" fill="#495057">12</text><text x="437.9" y="492" text-anchor="middle" font-size="11" font-family="system-ui,sans-serif" fill="#495057">14</text><text x="491.4" y="492" text-anchor="middle" font-size="11" font-family="system-ui,sans-serif" fill="#495057">16</text><text x="544.8" y="492" text-anchor="middle" font-size="11" font-family="system-ui,sans-serif" fill="#495057">18</text><text x="598.2" y="492" text-anchor="middle" font-size="11" font-family="system-ui,sans-serif" fill="#495057">20</text><text x="651.6" y="492" text-anchor="middle" font-size="11" font-family="system-ui,sans-serif" fill="#495057">22</text><text x="705.0" y="492" text-anchor="middle" font-size="11" font-family="system-ui,sans-serif" fill="#495057">24</text><text x="758.5" y="492" text-anchor="middle" font-size="11" font-family="system-ui,sans-serif" fill="#495057">26</text><text x="811.9" y="492" text-anchor="middle" font-size="11" font-family="system-ui,sans-serif" fill="#495057">28</text><text x="865.3" y="492" text-anchor="middle" font-size="11" font-family="system-ui,sans-serif" fill="#495057">30</text><line x1="64" y1="436.0" x2="892" y2="436.0" stroke="#212529" stroke-width="1.5" stroke-dasharray="6 4"/><polyline fill="none" stroke="#1f77b4" stroke-width="1.8" points="64.0,428.0 90.7,420.1 117.4,86.0 144.1,399.3 170.8,400.3 197.5,413.4 224.3,426.1 251.0,422.3 277.7,423.4 304.4,425.5 331.1,427.2 357.8,422.2 384.5,418.9 411.2,420.9 437.9,415.5 464.6,423.0 491.4,421.3 518.1,422.7 544.8,418.7 571.5,427.2 598.2,406.9 624.9,425.9 651.6,424.0 678.3,427.7 705.0,425.6 731.7,422.9 758.5,432.1 785.2,408.3 811.9,423.3 838.6,420.7 865.3,429.5 892.0,428.4"/><circle cx="64.0" cy="428.0" r="2.5" fill="#1f77b4"/><circle cx="90.7" cy="420.1" r="2.5" fill="#1f77b4"/><circle cx="117.4" cy="86.0" r="2.5" fill="#1f77b4"/><circle cx="144.1" cy="399.3" r="2.5" fill="#1f77b4"/><circle cx="170.8" cy="400.3" r="2.5" fill="#1f77b4"/><circle cx="197.5" cy="413.4" r="2.5" fill="#1f77b4"/><circle cx="224.3" cy="426.1" r="2.5" fill="#1f77b4"/><circle cx="251.0" cy="422.3" r="2.5" fill="#1f77b4"/><circle cx="277.7" cy="423.4" r="2.5" fill="#1f77b4"/><circle cx="304.4" cy="425.5" r="2.5" fill="#1f77b4"/><circle cx="331.1" cy="427.2" r="2.5" fill="#1f77b4"/><circle cx="357.8" cy="422.2" r="2.5" fill="#1f77b4"/><circle cx="384.5" cy="418.9" r="2.5" fill="#1f77b4"/><circle cx="411.2" cy="420.9" r="2.5" fill="#1f77b4"/><circle cx="437.9" cy="415.5" r="2.5" fill="#1f77b4"/><circle cx="464.6" cy="423.0" r="2.5" fill="#1f77b4"/><circle cx="491.4" cy="421.3" r="2.5" fill="#1f77b4"/><circle cx="518.1" cy="422.7" r="2.5" fill="#1f77b4"/><circle cx="544.8" cy="418.7" r="2.5" fill="#1f77b4"/><circle cx="571.5" cy="427.2" r="2.5" fill="#1f77b4"/><circle cx="598.2" cy="406.9" r="2.5" fill="#1f77b4"/><circle cx="624.9" cy="425.9" r="2.5" fill="#1f77b4"/><circle cx="651.6" cy="424.0" r="2.5" fill="#1f77b4"/><circle cx="678.3" cy="427.7" r="2.5" fill="#1f77b4"/><circle cx="705.0" cy="425.6" r="2.5" fill="#1f77b4"/><circle cx="731.7" cy="422.9" r="2.5" fill="#1f77b4"/><circle cx="758.5" cy="432.1" r="2.5" fill="#1f77b4"/><circle cx="785.2" cy="408.3" r="2.5" fill="#1f77b4"/><circle cx="811.9" cy="423.3" r="2.5" fill="#1f77b4"/><circle cx="838.6" cy="420.7" r="2.5" fill="#1f77b4"/><circle cx="865.3" cy="429.5" r="2.5" fill="#1f77b4"/><circle cx="892.0" cy="428.4" r="2.5" fill="#1f77b4"/><polyline fill="none" stroke="#ff7f0e" stroke-width="1.8" points="64.0,396.0 90.7,393.0 117.4,425.1 144.1,418.1 170.8,413.3 197.5,430.3 224.3,428.7 251.0,425.2 277.7,423.6 304.4,416.8 331.1,418.9 357.8,412.6 384.5,412.4 411.2,392.3 437.9,407.8 464.6,412.2 491.4,414.2 518.1,424.5 544.8,420.8 571.5,430.1 598.2,431.3 624.9,430.9 651.6,432.5 678.3,431.8 705.0,432.1 731.7,430.0 758.5,432.4 785.2,428.3 811.9,431.2 838.6,431.4 865.3,428.6 892.0,381.8"/><circle cx="64.0" cy="396.0" r="2.5" fill="#ff7f0e"/><circle cx="90.7" cy="393.0" r="2.5" fill="#ff7f0e"/><circle cx="117.4" cy="425.1" r="2.5" fill="#ff7f0e"/><circle cx="144.1" cy="418.1" r="2.5" fill="#ff7f0e"/><circle cx="170.8" cy="413.3" r="2.5" fill="#ff7f0e"/><circle cx="197.5" cy="430.3" r="2.5" fill="#ff7f0e"/><circle cx="224.3" cy="428.7" r="2.5" fill="#ff7f0e"/><circle cx="251.0" cy="425.2" r="2.5" fill="#ff7f0e"/><circle cx="277.7" cy="423.6" r="2.5" fill="#ff7f0e"/><circle cx="304.4" cy="416.8" r="2.5" fill="#ff7f0e"/><circle cx="331.1" cy="418.9" r="2.5" fill="#ff7f0e"/><circle cx="357.8" cy="412.6" r="2.5" fill="#ff7f0e"/><circle cx="384.5" cy="412.4" r="2.5" fill="#ff7f0e"/><circle cx="411.2" cy="392.3" r="2.5" fill="#ff7f0e"/><circle cx="437.9" cy="407.8" r="2.5" fill="#ff7f0e"/><circle cx="464.6" cy="412.2" r="2.5" fill="#ff7f0e"/><circle cx="491.4" cy="414.2" r="2.5" fill="#ff7f0e"/><circle cx="518.1" cy="424.5" r="2.5" fill="#ff7f0e"/><circle cx="544.8" cy="420.8" r="2.5" fill="#ff7f0e"/><circle cx="571.5" cy="430.1" r="2.5" fill="#ff7f0e"/><circle cx="598.2" cy="431.3" r="2.5" fill="#ff7f0e"/><circle cx="624.9" cy="430.9" r="2.5" fill="#ff7f0e"/><circle cx="651.6" cy="432.5" r="2.5" fill="#ff7f0e"/><circle cx="678.3" cy="431.8" r="2.5" fill="#ff7f0e"/><circle cx="705.0" cy="432.1" r="2.5" fill="#ff7f0e"/><circle cx="731.7" cy="430.0" r="2.5" fill="#ff7f0e"/><circle cx="758.5" cy="432.4" r="2.5" fill="#ff7f0e"/><circle cx="785.2" cy="428.3" r="2.5" fill="#ff7f0e"/><circle cx="811.9" cy="431.2" r="2.5" fill="#ff7f0e"/><circle cx="838.6" cy="431.4" r="2.5" fill="#ff7f0e"/><circle cx="865.3" cy="428.6" r="2.5" fill="#ff7f0e"/><circle cx="892.0" cy="381.8" r="2.5" fill="#ff7f0e"/><text x="460" y="512" text-anchor="middle" font-size="12" font-family="system-ui,sans-serif" fill="#212529">Layer index</text><text x="16" y="261" font-size="12" font-family="system-ui,sans-serif" fill="#212529" transform="rotate(-90 16 261)">Perplexity</text><rect x="724" y="70" width="176" height="78" fill="#ffffff" stroke="#ced4da"/><rect x="732" y="76" width="18" height="10" fill="#d8f3dc" stroke="#adb5bd"/><text x="756" y="84" font-size="11" font-family="system-ui,sans-serif" fill="#212529">5% degradation band</text><line x1="732" y1="97" x2="750" y2="97" stroke="#1f77b4" stroke-width="2"/><text x="756" y="100" font-size="11" font-family="system-ui,sans-serif" fill="#212529">K layers</text><line x1="732" y1="113" x2="750" y2="113" stroke="#ff7f0e" stroke-width="2"/><text x="756" y="116" font-size="11" font-family="system-ui,sans-serif" fill="#212529">V layers</text><line x1="732" y1="129" x2="750" y2="129" stroke="#212529" stroke-width="1.5" stroke-dasharray="4 2"/><text x="756" y="132" font-size="11" font-family="system-ui,sans-serif" fill="#212529">Baseline</text></svg>