<svg xmlns="http://www.w3.org/2000/svg" width="920" height="520" viewBox="0 0 920 520" role="img" aria-label="WikiText perplexity by layer at 50% vector compression"><rect width="100%" height="100%" fill="#ffffff"/><text x="64" y="28" font-size="15" font-family="system-ui,sans-serif" fill="#212529">Per layer resiliency run on Llama 3.1 8B Instruct using WikiText with vector compression (50% compression)</text><rect x="64" y="86.0" width="828" height="378.0" fill="#d8f3dc"/><line x1="64" y1="464.0" x2="892" y2="464.0" stroke="#e9ecef" stroke-width="1"/><text x="56" y="468.0" text-anchor="end" font-size="11" font-family="system-ui,sans-serif" fill="#495057">8.78</text><line x1="64" y1="362.5" x2="892" y2="362.5" stroke="#e9ecef" stroke-width="1"/><text x="56" y="366.5" text-anchor="end" font-size="11" font-family="system-ui,sans-serif" fill="#495057">8.91</text><line x1="64" y1="261.0" x2="892" y2="261.0" stroke="#e9ecef" stroke-width="1"/><text x="56" y="265.0" text-anchor="end" font-size="11" font-family="system-ui,sans-serif" fill="#495057">9.04</text><line x1="64" y1="159.5" x2="892" y2="159.5" stroke="#e9ecef" stroke-width="1"/><text x="56" y="163.5" text-anchor="end" font-size="11" font-family="system-ui,sans-serif" fill="#495057">9.17</text><line x1="64" y1="58.0" x2="892" y2="58.0" stroke="#e9ecef" stroke-width="1"/><text x="56" y="62.0" text-anchor="end" font-size="11" font-family="system-ui,sans-serif" fill="#495057">9.30</text><text x="64.0" y="492" text-anchor="middle" font-size="11" font-family="system-ui,sans-serif" fill="#495057">0</text><text x="117.4" y="492" text-anchor="middle" font-size="11" font-family="system-ui,sans-serif" fill="#495057">2</text><text x="170.8" y="492" text-anchor="middle" font-size="11" font-family="system-ui,sans-serif" fill="#495057">4</text><text x="224.3" y="492" text-anchor="middle" font-size="11" font-family="system-ui,sans-serif" fill="#495057">6</text><text x="277.7" y="492" text-anchor="middle" font-size="11" font-family="system-ui,sans-serif" fill="#495057">8</text><text x="331.1" y="492" text-anchor="middle" font-size="11" font-family="system-ui,sans-serif" fill="#495057">10</text><text x="384.5" y="492" text-anchor="middle" font-size="11" font-family="system-ui,sans-serif" fill="#495057">12</text><text x="437.9" y="492" text-anchor="middle" font-size="11" font-family="system-ui,sans-serif" fill="#495057">14</text><text x="491.4" y="492" text-anchor="middle" font-size="11" font-family="system-ui,sans-serif" fill="#495057">16</text><text x="544.8" y="492" text-anchor="middle" font-size="11" font-family="system-ui,sans-serif" fill="#495057">18</text><text x="598.2" y="492" text-anchor="middle" font-size="11" font-family="system-ui,sans-serif" fill="#495057">20</text><text x="651.6" y="492" text-anchor="middle" font-size="11" font-family="system-ui,sans-serif" fill="#495057">22</text><text x="705.0" y="492" text-anchor="middle" font-size="11" font-family="system-ui,sans-serif" fill="#495057">24</text><text x="758.5" y="492" text-anchor="middle" font-size="11" font-family="system-ui,sans-serif" fill="#495057">26</text><text x="811.9" y="492" text-anchor="middle" font-size="11" font-family="system-ui,sans-serif" fill="#495057">28</text><text x="865.3" y="492" text-anchor="middle" font-size="11" font-family="system-ui,sans-serif" fill="#495057">30</text><line x1="64" y1="427.2" x2="892" y2="427.2" stroke="#212529" stroke-width="1.5" stroke-dasharray="6 4"/><polyline fill="none" stroke="#1f77b4" stroke-width="1.8" points="64.0,340.7 90.7,420.2 117.4,403.9 144.1,399.8 170.8,408.9 197.5,418.9 224.3,411.0 251.0,411.9 277.7,421.4 304.4,419.2 331.1,414.7 357.8,410.3 384.5,416.5 411.2,411.0 437.9,396.2 464.6,413.1 491.4,417.5 518.1,413.7 544.8,416.1 571.5,418.0 598.2,425.0 624.9,420.5 651.6,419.6 678.3,421.2 705.0,421.7 731.7,419.8 758.5,420.9 785.2,420.5 811.9,421.4 838.6,421.7 865.3,421.3 892.0,417.3"/><circle cx="64.0" cy="340.7" r="2.5" fill="#1f77b4"/><circle cx="90.7" cy="420.2" r="2.5" fill="#1f77b4"/><circle cx="117.4" cy="403.9" r="2.5" fill="#1f77b4"/><circle cx="144.1" cy="399.8" r="2.5" fill="#1f77b4"/><circle cx="170.8" cy="408.9" r="2.5" fill="#1f77b4"/><circle cx="197.5" cy="418.9" r="2.5" fill="#1f77b4"/><circle cx="224.3" cy="411.0" r="2.5" fill="#1f77b4"/><circle cx="251.0" cy="411.9" r="2.5" fill="#1f77b4"/><circle cx="277.7" cy="421.4" r="2.5" fill="#1f77b4"/><circle cx="304.4" cy="419.2" r="2.5" fill="#1f77b4"/><circle cx="331.1" cy="414.7" r="2.5" fill="#1f77b4"/><circle cx="357.8" cy="410.3" r="2.5" fill="#1f77b4"/><circle cx="384.5" cy="416.5" r="2.5" fill="#1f77b4"/><circle cx="411.2" cy="411.0" r="2.5" fill="#1f77b4"/><circle cx="437.9" cy="396.2" r="2.5" fill="#1f77b4"/><circle cx="464.6" cy="413.1" r="2.5" fill="#1f77b4"/><circle cx="491.4" cy="417.5" r="2.5" fill="#1f77b4"/><circle cx="518.1" cy="413.7" r="2.5" fill="#1f77b4"/><circle cx="544.8" cy="416.1" r="2.5" fill="#1f77b4"/><circle cx="571.5" cy="418.0" r="2.5" fill="#1f77b4"/><circle cx="598.2" cy="425.0" r="2.5" fill="#1f77b4"/><circle cx="624.9" cy="420.5" r="2.5" fill="#1f77b4"/><circle cx="651.6" cy="419.6" r="2.5" fill="#1f77b4"/><circle cx="678.3" cy="421.2" r="2.5" fill="#1f77b4"/><circle cx="705.0" cy="421.7" r="2.5" fill="#1f77b4"/><circle cx="731.7" cy="419.8" r="2.5" fill="#1f77b4"/><circle cx="758.5" cy="420.9" r="2.5" fill="#1f77b4"/><circle cx="785.2" cy="420.5" r="2.5" fill="#1f77b4"/><circle cx="811.9" cy="421.4" r="2.5" fill="#1f77b4"/><circle cx="838.6" cy="421.7" r="2.5" fill="#1f77b4"/><circle cx="865.3" cy="421.3" r="2.5" fill="#1f77b4"/><circle cx="892.0" cy="417.3" r="2.5" fill="#1f77b4"/><polyline fill="none" stroke="#ff7f0e" stroke-width="1.8" points="64.0,418.8 90.7,417.2 117.4,424.8 144.1,436.0 170.8,421.7 197.5,433.1 224.3,430.8 251.0,421.0 277.7,421.5 304.4,420.5 331.1,422.5 357.8,419.1 384.5,421.6 411.2,414.4 437.9,419.6 464.6,419.8 491.4,420.9 518.1,420.3 544.8,419.6 571.5,426.6 598.2,421.7 624.9,422.0 651.6,422.1 678.3,421.5 705.0,421.4 731.7,424.9 758.5,427.2 785.2,421.6 811.9,425.6 838.6,423.0 865.3,423.4 892.0,417.2"/><circle cx="64.0" cy="418.8" r="2.5" fill="#ff7f0e"/><circle cx="90.7" cy="417.2" r="2.5" fill="#ff7f0e"/><circle cx="117.4" cy="424.8" r="2.5" fill="#ff7f0e"/><circle cx="144.1" cy="436.0" r="2.5" fill="#ff7f0e"/><circle cx="170.8" cy="421.7" r="2.5" fill="#ff7f0e"/><circle cx="197.5" cy="433.1" r="2.5" fill="#ff7f0e"/><circle cx="224.3" cy="430.8" r="2.5" fill="#ff7f0e"/><circle cx="251.0" cy="421.0" r="2.5" fill="#ff7f0e"/><circle cx="277.7" cy="421.5" r="2.5" fill="#ff7f0e"/><circle cx="304.4" cy="420.5" r="2.5" fill="#ff7f0e"/><circle cx="331.1" cy="422.5" r="2.5" fill="#ff7f0e"/><circle cx="357.8" cy="419.1" r="2.5" fill="#ff7f0e"/><circle cx="384.5" cy="421.6" r="2.5" fill="#ff7f0e"/><circle cx="411.2" cy="414.4" r="2.5" fill="#ff7f0e"/><circle cx="437.9" cy="419.6" r="2.5" fill="#ff7f0e"/><circle cx="464.6" cy="419.8" r="2.5" fill="#ff7f0e"/><circle cx="491.4" cy="420.9" r="2.5" fill="#ff7f0e"/><circle cx="518.1" cy="420.3" r="2.5" fill="#ff7f0e"/><circle cx="544.8" cy="419.6" r="2.5" fill="#ff7f0e"/><circle cx="571.5" cy="426.6" r="2.5" fill="#ff7f0e"/><circle cx="598.2" cy="421.7" r="2.5" fill="#ff7f0e"/><circle cx="624.9" cy="422.0" r="2.5" fill="#ff7f0e"/><circle cx="651.6" cy="422.1" r="2.5" fill="#ff7f0e"/><circle cx="678.3" cy="421.5" r="2.5" fill="#ff7f0e"/><circle cx="705.0" cy="421.4" r="2.5" fill="#ff7f0e"/><circle cx="731.7" cy="424.9" r="2.5" fill="#ff7f0e"/><circle cx="758.5" cy="427.2" r="2.5" fill="#ff7f0e"/><circle cx="785.2" cy="421.6" r="2.5" fill="#ff7f0e"/><circle cx="811.9" cy="425.6" r="2.5" fill="#ff7f0e"/><circle cx="838.6" cy="423.0" r="2.5" fill="#ff7f0e"/><circle cx="865.3" cy="423.4" r="2.5" fill="#ff7f0e"/><circle cx="892.0" cy="417.2" r="2.5" fill="#ff7f0e"/><text x="460" y="512" text-anchor="middle" font-size="12" font-family="system-ui,sans-serif" fill="#212529">Layer index</text><text x="16" y="261" font-size="12" font-family="system-ui,sans-serif" fill="#212529" transform="rotate(-90 16 261)">Perplexity</text><rect x="724" y="70" width="176" height="78" fill="#ffffff" stroke="#ced4da"/><rect x="732" y="76" width="18" height="10" fill="#d8f3dc" stroke="#adb5bd"/><text x="756" y="84" font-size="11" font-family="system-ui,sans-serif" fill="#212529">5% degradation band</text><line x1="732" y1="97" x2="750" y2="97" stroke="#1f77b4" stroke-width="2"/><text x="756" y="100" font-size="11" font-family="system-ui,sans-serif" fill="#212529">K layers</text><line x1="732" y1="113" x2="750" y2="113" stroke="#ff7f0e" stroke-width="2"/><text x="756" y="116" font-size="11" font-family="system-ui,sans-serif" fill="#212529">V layers</text><line x1="732" y1="129" x2="750" y2="129" stroke="#212529" stroke-width="1.5" stroke-dasharray="4 2"/><text x="756" y="132" font-size="11" font-family="system-ui,sans-serif" fill="#212529">Baseline</text></svg>