<svg xmlns="http://www.w3.org/2000/svg" width="920" height="520" viewBox="0 0 920 520" role="img" aria-label="WikiText perplexity by layer at 100% vector compression"><rect width="100%" height="100%" fill="#ffffff"/><text x="64" y="28" font-size="15" font-family="system-ui,sans-serif" fill="#212529">Per layer resiliency run on Llama 3.1 8B Instruct using WikiText with Per-feature</text><rect x="64" y="354.8" width="828" height="109.2" fill="#d8f3dc"/><line x1="64" y1="464.0" x2="892" y2="464.0" stroke="#e9ecef" stroke-width="1"/><text x="56" y="468.0" text-anchor="end" font-size="11" font-family="system-ui,sans-serif" fill="#495057">8.67</text><line x1="64" y1="362.5" x2="892" y2="362.5" stroke="#e9ecef" stroke-width="1"/><text x="56" y="366.5" text-anchor="end" font-size="11" font-family="system-ui,sans-serif" fill="#495057">9.22</text><line x1="64" y1="261.0" x2="892" y2="261.0" stroke="#e9ecef" stroke-width="1"/><text x="56" y="265.0" text-anchor="end" font-size="11" font-family="system-ui,sans-serif" fill="#495057">9.78</text><line x1="64" y1="159.5" x2="892" y2="159.5" stroke="#e9ecef" stroke-width="1"/><text x="56" y="163.5" text-anchor="end" font-size="11" font-family="system-ui,sans-serif" fill="#495057">10.33</text><line x1="64" y1="58.0" x2="892" y2="58.0" stroke="#e9ecef" stroke-width="1"/><text x="56" y="62.0" text-anchor="end" font-size="11" font-family="system-ui,sans-serif" fill="#495057">10.88</text><text x="64.0" y="492" text-anchor="middle" font-size="11" font-family="system-ui,sans-serif" fill="#495057">0</text><text x="117.4" y="492" text-anchor="middle" font-size="11" font-family="system-ui,sans-serif" fill="#495057">2</text><text x="170.8" y="492" text-anchor="middle" font-size="11" font-family="system-ui,sans-serif" fill="#495057">4</text><text x="224.3" y="492" text-anchor="middle" font-size="11" font-family="system-ui,sans-serif" fill="#495057">6</text><text x="277.7" y="492" text-anchor="middle" font-size="11" font-family="system-ui,sans-serif" fill="#495057">8</text><text x="331.1" y="492" text-anchor="middle" font-size="11" font-family="system-ui,sans-serif" fill="#495057">10</text><text x="384.5" y="492" text-anchor="middle" font-size="11" font-family="system-ui,sans-serif" fill="#495057">12</text><text x="437.9" y="492" text-anchor="middle" font-size="11" font-family="system-ui,sans-serif" fill="#495057">14</text><text x="491.4" y="492" text-anchor="middle" font-size="11" font-family="system-ui,sans-serif" fill="#495057">16</text><text x="544.8" y="492" text-anchor="middle" font-size="11" font-family="system-ui,sans-serif" fill="#495057">18</text><text x="598.2" y="492" text-anchor="middle" font-size="11" font-family="system-ui,sans-serif" fill="#495057">20</text><text x="651.6" y="492" text-anchor="middle" font-size="11" font-family="system-ui,sans-serif" fill="#495057">22</text><text x="705.0" y="492" text-anchor="middle" font-size="11" font-family="system-ui,sans-serif" fill="#495057">24</text><text x="758.5" y="492" text-anchor="middle" font-size="11" font-family="system-ui,sans-serif" fill="#495057">26</text><text x="811.9" y="492" text-anchor="middle" font-size="11" font-family="system-ui,sans-serif" fill="#495057">28</text><text x="865.3" y="492" text-anchor="middle" font-size="11" font-family="system-ui,sans-serif" fill="#495057">30</text><line x1="64" y1="436.0" x2="892" y2="436.0" stroke="#212529" stroke-width="1.5" stroke-dasharray="6 4"/><polyline fill="none" stroke="#1f77b4" stroke-width="1.8" points="64.0,417.9 90.7,420.6 117.4,86.0 144.1,404.7 170.8,383.6 197.5,412.8 224.3,420.8 251.0,419.2 277.7,424.9 304.4,420.2 331.1,425.7 357.8,416.9 384.5,414.7 411.2,413.5 437.9,410.5 464.6,415.8 491.4,416.6 518.1,420.3 544.8,421.0 571.5,428.1 598.2,423.5 624.9,428.1 651.6,431.0 678.3,430.5 705.0,432.4 731.7,428.0 758.5,432.0 785.2,422.1 811.9,427.4 838.6,419.2 865.3,430.7 892.0,424.1"/><circle cx="64.0" cy="417.9" r="2.5" fill="#1f77b4"/><circle cx="90.7" cy="420.6" r="2.5" fill="#1f77b4"/><circle cx="117.4" cy="86.0" r="2.5" fill="#1f77b4"/><circle cx="144.1" cy="404.7" r="2.5" fill="#1f77b4"/><circle cx="170.8" cy="383.6" r="2.5" fill="#1f77b4"/><circle cx="197.5" cy="412.8" r="2.5" fill="#1f77b4"/><circle cx="224.3" cy="420.8" r="2.5" fill="#1f77b4"/><circle cx="251.0" cy="419.2" r="2.5" fill="#1f77b4"/><circle cx="277.7" cy="424.9" r="2.5" fill="#1f77b4"/><circle cx="304.4" cy="420.2" r="2.5" fill="#1f77b4"/><circle cx="331.1" cy="425.7" r="2.5" fill="#1f77b4"/><circle cx="357.8" cy="416.9" r="2.5" fill="#1f77b4"/><circle cx="384.5" cy="414.7" r="2.5" fill="#1f77b4"/><circle cx="411.2" cy="413.5" r="2.5" fill="#1f77b4"/><circle cx="437.9" cy="410.5" r="2.5" fill="#1f77b4"/><circle cx="464.6" cy="415.8" r="2.5" fill="#1f77b4"/><circle cx="491.4" cy="416.6" r="2.5" fill="#1f77b4"/><circle cx="518.1" cy="420.3" r="2.5" fill="#1f77b4"/><circle cx="544.8" cy="421.0" r="2.5" fill="#1f77b4"/><circle cx="571.5" cy="428.1" r="2.5" fill="#1f77b4"/><circle cx="598.2" cy="423.5" r="2.5" fill="#1f77b4"/><circle cx="624.9" cy="428.1" r="2.5" fill="#1f77b4"/><circle cx="651.6" cy="431.0" r="2.5" fill="#1f77b4"/><circle cx="678.3" cy="430.5" r="2.5" fill="#1f77b4"/><circle cx="705.0" cy="432.4" r="2.5" fill="#1f77b4"/><circle cx="731.7" cy="428.0" r="2.5" fill="#1f77b4"/><circle cx="758.5" cy="432.0" r="2.5" fill="#1f77b4"/><circle cx="785.2" cy="422.1" r="2.5" fill="#1f77b4"/><circle cx="811.9" cy="427.4" r="2.5" fill="#1f77b4"/><circle cx="838.6" cy="419.2" r="2.5" fill="#1f77b4"/><circle cx="865.3" cy="430.7" r="2.5" fill="#1f77b4"/><circle cx="892.0" cy="424.1" r="2.5" fill="#1f77b4"/><polyline fill="none" stroke="#ff7f0e" stroke-width="1.8" points="64.0,392.1 90.7,390.5 117.4,430.6 144.1,426.2 170.8,414.7 197.5,431.2 224.3,430.6 251.0,421.2 277.7,417.5 304.4,414.7 331.1,413.7 357.8,410.4 384.5,407.0 411.2,388.5 437.9,405.3 464.6,408.2 491.4,412.7 518.1,417.2 544.8,417.6 571.5,427.5 598.2,430.9 624.9,424.2 651.6,432.9 678.3,431.2 705.0,432.4 731.7,430.5 758.5,430.8 785.2,427.6 811.9,430.4 838.6,430.3 865.3,427.5 892.0,350.4"/><circle cx="64.0" cy="392.1" r="2.5" fill="#ff7f0e"/><circle cx="90.7" cy="390.5" r="2.5" fill="#ff7f0e"/><circle cx="117.4" cy="430.6" r="2.5" fill="#ff7f0e"/><circle cx="144.1" cy="426.2" r="2.5" fill="#ff7f0e"/><circle cx="170.8" cy="414.7" r="2.5" fill="#ff7f0e"/><circle cx="197.5" cy="431.2" r="2.5" fill="#ff7f0e"/><circle cx="224.3" cy="430.6" r="2.5" fill="#ff7f0e"/><circle cx="251.0" cy="421.2" r="2.5" fill="#ff7f0e"/><circle cx="277.7" cy="417.5" r="2.5" fill="#ff7f0e"/><circle cx="304.4" cy="414.7" r="2.5" fill="#ff7f0e"/><circle cx="331.1" cy="413.7" r="2.5" fill="#ff7f0e"/><circle cx="357.8" cy="410.4" r="2.5" fill="#ff7f0e"/><circle cx="384.5" cy="407.0" r="2.5" fill="#ff7f0e"/><circle cx="411.2" cy="388.5" r="2.5" fill="#ff7f0e"/><circle cx="437.9" cy="405.3" r="2.5" fill="#ff7f0e"/><circle cx="464.6" cy="408.2" r="2.5" fill="#ff7f0e"/><circle cx="491.4" cy="412.7" r="2.5" fill="#ff7f0e"/><circle cx="518.1" cy="417.2" r="2.5" fill="#ff7f0e"/><circle cx="544.8" cy="417.6" r="2.5" fill="#ff7f0e"/><circle cx="571.5" cy="427.5" r="2.5" fill="#ff7f0e"/><circle cx="598.2" cy="430.9" r="2.5" fill="#ff7f0e"/><circle cx="624.9" cy="424.2" r="2.5" fill="#ff7f0e"/><circle cx="651.6" cy="432.9" r="2.5" fill="#ff7f0e"/><circle cx="678.3" cy="431.2" r="2.5" fill="#ff7f0e"/><circle cx="705.0" cy="432.4" r="2.5" fill="#ff7f0e"/><circle cx="731.7" cy="430.5" r="2.5" fill="#ff7f0e"/><circle cx="758.5" cy="430.8" r="2.5" fill="#ff7f0e"/><circle cx="785.2" cy="427.6" r="2.5" fill="#ff7f0e"/><circle cx="811.9" cy="430.4" r="2.5" fill="#ff7f0e"/><circle cx="838.6" cy="430.3" r="2.5" fill="#ff7f0e"/><circle cx="865.3" cy="427.5" r="2.5" fill="#ff7f0e"/><circle cx="892.0" cy="350.4" r="2.5" fill="#ff7f0e"/><text x="460" y="512" text-anchor="middle" font-size="12" font-family="system-ui,sans-serif" fill="#212529">Layer index</text><text x="16" y="261" font-size="12" font-family="system-ui,sans-serif" fill="#212529" transform="rotate(-90 16 261)">Perplexity</text><rect x="724" y="70" width="176" height="78" fill="#ffffff" stroke="#ced4da"/><rect x="732" y="76" width="18" height="10" fill="#d8f3dc" stroke="#adb5bd"/><text x="756" y="84" font-size="11" font-family="system-ui,sans-serif" fill="#212529">5% degradation band</text><line x1="732" y1="97" x2="750" y2="97" stroke="#1f77b4" stroke-width="2"/><text x="756" y="100" font-size="11" font-family="system-ui,sans-serif" fill="#212529">K layers</text><line x1="732" y1="113" x2="750" y2="113" stroke="#ff7f0e" stroke-width="2"/><text x="756" y="116" font-size="11" font-family="system-ui,sans-serif" fill="#212529">V layers</text><line x1="732" y1="129" x2="750" y2="129" stroke="#212529" stroke-width="1.5" stroke-dasharray="4 2"/><text x="756" y="132" font-size="11" font-family="system-ui,sans-serif" fill="#212529">Baseline</text></svg>