<svg xmlns="http://www.w3.org/2000/svg" width="960" height="798" viewBox="0 0 960 798" role="img" aria-label="WikiText perplexity of scalar and pair vector compression"><rect width="100%" height="100%" fill="#ffffff"/><text x="64" y="28" font-size="16" font-family="system-ui,sans-serif" font-weight="700" fill="#212529">Scalar vector compression versus pair magnitude, WikiText</text><text x="64" y="64" font-size="13" font-family="system-ui,sans-serif" fill="#212529">25% of each vector</text><line x1="64" y1="176.7" x2="772" y2="176.7" stroke="#212529" stroke-width="1.2" stroke-dasharray="6 4"/><polyline fill="none" stroke="#1f77b4" stroke-width="1.8" points="64.0,136.7 86.8,249.2 109.7,133.1 132.5,123.0 155.4,157.1 178.2,153.9 201.0,155.8 223.9,173.5 246.7,168.5 269.5,173.5 292.4,152.0 315.2,169.7 338.1,153.3 360.9,150.8 383.7,167.2 406.6,150.8 429.4,171.6 452.3,144.5 475.1,183.0 497.9,154.6 520.8,173.5 543.6,172.9 566.5,177.9 589.3,157.7 612.1,156.5 635.0,168.5 657.8,143.8 680.6,143.8 703.5,149.5 726.3,154.6 749.2,169.7 772.0,153.3"/><circle cx="64.0" cy="136.7" r="2.2" fill="#1f77b4"/><circle cx="86.8" cy="249.2" r="2.2" fill="#1f77b4"/><circle cx="109.7" cy="133.1" r="2.2" fill="#1f77b4"/><circle cx="132.5" cy="123.0" r="2.2" fill="#1f77b4"/><circle cx="155.4" cy="157.1" r="2.2" fill="#1f77b4"/><circle cx="178.2" cy="153.9" r="2.2" fill="#1f77b4"/><circle cx="201.0" cy="155.8" r="2.2" fill="#1f77b4"/><circle cx="223.9" cy="173.5" r="2.2" fill="#1f77b4"/><circle cx="246.7" cy="168.5" r="2.2" fill="#1f77b4"/><circle cx="269.5" cy="173.5" r="2.2" fill="#1f77b4"/><circle cx="292.4" cy="152.0" r="2.2" fill="#1f77b4"/><circle cx="315.2" cy="169.7" r="2.2" fill="#1f77b4"/><circle cx="338.1" cy="153.3" r="2.2" fill="#1f77b4"/><circle cx="360.9" cy="150.8" r="2.2" fill="#1f77b4"/><circle cx="383.7" cy="167.2" r="2.2" fill="#1f77b4"/><circle cx="406.6" cy="150.8" r="2.2" fill="#1f77b4"/><circle cx="429.4" cy="171.6" r="2.2" fill="#1f77b4"/><circle cx="452.3" cy="144.5" r="2.2" fill="#1f77b4"/><circle cx="475.1" cy="183.0" r="2.2" fill="#1f77b4"/><circle cx="497.9" cy="154.6" r="2.2" fill="#1f77b4"/><circle cx="520.8" cy="173.5" r="2.2" fill="#1f77b4"/><circle cx="543.6" cy="172.9" r="2.2" fill="#1f77b4"/><circle cx="566.5" cy="177.9" r="2.2" fill="#1f77b4"/><circle cx="589.3" cy="157.7" r="2.2" fill="#1f77b4"/><circle cx="612.1" cy="156.5" r="2.2" fill="#1f77b4"/><circle cx="635.0" cy="168.5" r="2.2" fill="#1f77b4"/><circle cx="657.8" cy="143.8" r="2.2" fill="#1f77b4"/><circle cx="680.6" cy="143.8" r="2.2" fill="#1f77b4"/><circle cx="703.5" cy="149.5" r="2.2" fill="#1f77b4"/><circle cx="726.3" cy="154.6" r="2.2" fill="#1f77b4"/><circle cx="749.2" cy="169.7" r="2.2" fill="#1f77b4"/><circle cx="772.0" cy="153.3" r="2.2" fill="#1f77b4"/><polyline fill="none" stroke="#ff7f0e" stroke-width="1.8" points="64.0,152.0 86.8,141.9 109.7,157.1 132.5,153.3 155.4,154.6 178.2,171.0 201.0,173.5 223.9,152.0 246.7,152.0 269.5,174.1 292.4,150.8 315.2,145.7 338.1,163.4 360.9,177.3 383.7,173.5 406.6,153.3 429.4,150.8 452.3,162.1 475.1,149.5 497.9,171.6 520.8,152.0 543.6,181.1 566.5,150.8 589.3,176.0 612.1,150.8 635.0,166.6 657.8,171.6 680.6,172.2 703.5,172.9 726.3,172.9 749.2,172.2 772.0,170.3"/><circle cx="64.0" cy="152.0" r="2.2" fill="#ff7f0e"/><circle cx="86.8" cy="141.9" r="2.2" fill="#ff7f0e"/><circle cx="109.7" cy="157.1" r="2.2" fill="#ff7f0e"/><circle cx="132.5" cy="153.3" r="2.2" fill="#ff7f0e"/><circle cx="155.4" cy="154.6" r="2.2" fill="#ff7f0e"/><circle cx="178.2" cy="171.0" r="2.2" fill="#ff7f0e"/><circle cx="201.0" cy="173.5" r="2.2" fill="#ff7f0e"/><circle cx="223.9" cy="152.0" r="2.2" fill="#ff7f0e"/><circle cx="246.7" cy="152.0" r="2.2" fill="#ff7f0e"/><circle cx="269.5" cy="174.1" r="2.2" fill="#ff7f0e"/><circle cx="292.4" cy="150.8" r="2.2" fill="#ff7f0e"/><circle cx="315.2" cy="145.7" r="2.2" fill="#ff7f0e"/><circle cx="338.1" cy="163.4" r="2.2" fill="#ff7f0e"/><circle cx="360.9" cy="177.3" r="2.2" fill="#ff7f0e"/><circle cx="383.7" cy="173.5" r="2.2" fill="#ff7f0e"/><circle cx="406.6" cy="153.3" r="2.2" fill="#ff7f0e"/><circle cx="429.4" cy="150.8" r="2.2" fill="#ff7f0e"/><circle cx="452.3" cy="162.1" r="2.2" fill="#ff7f0e"/><circle cx="475.1" cy="149.5" r="2.2" fill="#ff7f0e"/><circle cx="497.9" cy="171.6" r="2.2" fill="#ff7f0e"/><circle cx="520.8" cy="152.0" r="2.2" fill="#ff7f0e"/><circle cx="543.6" cy="181.1" r="2.2" fill="#ff7f0e"/><circle cx="566.5" cy="150.8" r="2.2" fill="#ff7f0e"/><circle cx="589.3" cy="176.0" r="2.2" fill="#ff7f0e"/><circle cx="612.1" cy="150.8" r="2.2" fill="#ff7f0e"/><circle cx="635.0" cy="166.6" r="2.2" fill="#ff7f0e"/><circle cx="657.8" cy="171.6" r="2.2" fill="#ff7f0e"/><circle cx="680.6" cy="172.2" r="2.2" fill="#ff7f0e"/><circle cx="703.5" cy="172.9" r="2.2" fill="#ff7f0e"/><circle cx="726.3" cy="172.9" r="2.2" fill="#ff7f0e"/><circle cx="749.2" cy="172.2" r="2.2" fill="#ff7f0e"/><circle cx="772.0" cy="170.3" r="2.2" fill="#ff7f0e"/><polyline fill="none" stroke="#1f77b4" stroke-width="1.8" stroke-dasharray="5 3" points="86.8,123.0 109.7,88.8 132.5,98.9 155.4,134.3 178.2,150.1 201.0,125.0 223.9,116.7 246.7,147.0 269.5,152.0 292.4,129.9 315.2,130.6 338.1,126.8 360.9,150.8 383.7,123.0 406.6,129.9 429.4,135.6 452.3,130.6 475.1,133.7 497.9,140.7 520.8,167.2 543.6,144.5 566.5,150.8 589.3,144.5 612.1,143.2 635.0,148.2 657.8,141.9 680.6,138.8 703.5,153.3 726.3,150.8 749.2,145.1 772.0,140.7"/><circle cx="86.8" cy="123.0" r="2.2" fill="#1f77b4"/><circle cx="109.7" cy="88.8" r="2.2" fill="#1f77b4"/><circle cx="132.5" cy="98.9" r="2.2" fill="#1f77b4"/><circle cx="155.4" cy="134.3" r="2.2" fill="#1f77b4"/><circle cx="178.2" cy="150.1" r="2.2" fill="#1f77b4"/><circle cx="201.0" cy="125.0" r="2.2" fill="#1f77b4"/><circle cx="223.9" cy="116.7" r="2.2" fill="#1f77b4"/><circle cx="246.7" cy="147.0" r="2.2" fill="#1f77b4"/><circle cx="269.5" cy="152.0" r="2.2" fill="#1f77b4"/><circle cx="292.4" cy="129.9" r="2.2" fill="#1f77b4"/><circle cx="315.2" cy="130.6" r="2.2" fill="#1f77b4"/><circle cx="338.1" cy="126.8" r="2.2" fill="#1f77b4"/><circle cx="360.9" cy="150.8" r="2.2" fill="#1f77b4"/><circle cx="383.7" cy="123.0" r="2.2" fill="#1f77b4"/><circle cx="406.6" cy="129.9" r="2.2" fill="#1f77b4"/><circle cx="429.4" cy="135.6" r="2.2" fill="#1f77b4"/><circle cx="452.3" cy="130.6" r="2.2" fill="#1f77b4"/><circle cx="475.1" cy="133.7" r="2.2" fill="#1f77b4"/><circle cx="497.9" cy="140.7" r="2.2" fill="#1f77b4"/><circle cx="520.8" cy="167.2" r="2.2" fill="#1f77b4"/><circle cx="543.6" cy="144.5" r="2.2" fill="#1f77b4"/><circle cx="566.5" cy="150.8" r="2.2" fill="#1f77b4"/><circle cx="589.3" cy="144.5" r="2.2" fill="#1f77b4"/><circle cx="612.1" cy="143.2" r="2.2" fill="#1f77b4"/><circle cx="635.0" cy="148.2" r="2.2" fill="#1f77b4"/><circle cx="657.8" cy="141.9" r="2.2" fill="#1f77b4"/><circle cx="680.6" cy="138.8" r="2.2" fill="#1f77b4"/><circle cx="703.5" cy="153.3" r="2.2" fill="#1f77b4"/><circle cx="726.3" cy="150.8" r="2.2" fill="#1f77b4"/><circle cx="749.2" cy="145.1" r="2.2" fill="#1f77b4"/><circle cx="772.0" cy="140.7" r="2.2" fill="#1f77b4"/><polyline fill="none" stroke="#ff7f0e" stroke-width="1.8" stroke-dasharray="5 3" points="64.0,145.7 86.8,138.8 109.7,157.1 132.5,176.7 155.4,155.8 178.2,178.6 201.0,183.6 223.9,148.2 246.7,163.4 269.5,152.7 292.4,147.0 315.2,145.7 338.1,144.5 360.9,130.6 383.7,149.5 406.6,145.2 429.4,147.6 452.3,144.5 475.1,149.5 497.9,149.5 520.8,145.7 543.6,153.9 566.5,148.2 589.3,177.3 612.1,157.1 635.0,170.3 657.8,169.1 680.6,143.2 703.5,148.2 726.3,168.5 749.2,160.9 772.0,135.6"/><circle cx="64.0" cy="145.7" r="2.2" fill="#ff7f0e"/><circle cx="86.8" cy="138.8" r="2.2" fill="#ff7f0e"/><circle cx="109.7" cy="157.1" r="2.2" fill="#ff7f0e"/><circle cx="132.5" cy="176.7" r="2.2" fill="#ff7f0e"/><circle cx="155.4" cy="155.8" r="2.2" fill="#ff7f0e"/><circle cx="178.2" cy="178.6" r="2.2" fill="#ff7f0e"/><circle cx="201.0" cy="183.6" r="2.2" fill="#ff7f0e"/><circle cx="223.9" cy="148.2" r="2.2" fill="#ff7f0e"/><circle cx="246.7" cy="163.4" r="2.2" fill="#ff7f0e"/><circle cx="269.5" cy="152.7" r="2.2" fill="#ff7f0e"/><circle cx="292.4" cy="147.0" r="2.2" fill="#ff7f0e"/><circle cx="315.2" cy="145.7" r="2.2" fill="#ff7f0e"/><circle cx="338.1" cy="144.5" r="2.2" fill="#ff7f0e"/><circle cx="360.9" cy="130.6" r="2.2" fill="#ff7f0e"/><circle cx="383.7" cy="149.5" r="2.2" fill="#ff7f0e"/><circle cx="406.6" cy="145.2" r="2.2" fill="#ff7f0e"/><circle cx="429.4" cy="147.6" r="2.2" fill="#ff7f0e"/><circle cx="452.3" cy="144.5" r="2.2" fill="#ff7f0e"/><circle cx="475.1" cy="149.5" r="2.2" fill="#ff7f0e"/><circle cx="497.9" cy="149.5" r="2.2" fill="#ff7f0e"/><circle cx="520.8" cy="145.7" r="2.2" fill="#ff7f0e"/><circle cx="543.6" cy="153.9" r="2.2" fill="#ff7f0e"/><circle cx="566.5" cy="148.2" r="2.2" fill="#ff7f0e"/><circle cx="589.3" cy="177.3" r="2.2" fill="#ff7f0e"/><circle cx="612.1" cy="157.1" r="2.2" fill="#ff7f0e"/><circle cx="635.0" cy="170.3" r="2.2" fill="#ff7f0e"/><circle cx="657.8" cy="169.1" r="2.2" fill="#ff7f0e"/><circle cx="680.6" cy="143.2" r="2.2" fill="#ff7f0e"/><circle cx="703.5" cy="148.2" r="2.2" fill="#ff7f0e"/><circle cx="726.3" cy="168.5" r="2.2" fill="#ff7f0e"/><circle cx="749.2" cy="160.9" r="2.2" fill="#ff7f0e"/><circle cx="772.0" cy="135.6" r="2.2" fill="#ff7f0e"/><text x="64.0" y="284" text-anchor="middle" font-size="11" font-family="system-ui,sans-serif" fill="#495057">0</text><text x="109.7" y="284" text-anchor="middle" font-size="11" font-family="system-ui,sans-serif" fill="#495057">2</text><text x="155.4" y="284" text-anchor="middle" font-size="11" font-family="system-ui,sans-serif" fill="#495057">4</text><text x="201.0" y="284" text-anchor="middle" font-size="11" font-family="system-ui,sans-serif" fill="#495057">6</text><text x="246.7" y="284" text-anchor="middle" font-size="11" font-family="system-ui,sans-serif" fill="#495057">8</text><text x="292.4" y="284" text-anchor="middle" font-size="11" font-family="system-ui,sans-serif" fill="#495057">10</text><text x="338.1" y="284" text-anchor="middle" font-size="11" font-family="system-ui,sans-serif" fill="#495057">12</text><text x="383.7" y="284" text-anchor="middle" font-size="11" font-family="system-ui,sans-serif" fill="#495057">14</text><text x="429.4" y="284" text-anchor="middle" font-size="11" font-family="system-ui,sans-serif" fill="#495057">16</text><text x="475.1" y="284" text-anchor="middle" font-size="11" font-family="system-ui,sans-serif" fill="#495057">18</text><text x="520.8" y="284" text-anchor="middle" font-size="11" font-family="system-ui,sans-serif" fill="#495057">20</text><text x="566.5" y="284" text-anchor="middle" font-size="11" font-family="system-ui,sans-serif" fill="#495057">22</text><text x="612.1" y="284" text-anchor="middle" font-size="11" font-family="system-ui,sans-serif" fill="#495057">24</text><text x="657.8" y="284" text-anchor="middle" font-size="11" font-family="system-ui,sans-serif" fill="#495057">26</text><text x="703.5" y="284" text-anchor="middle" font-size="11" font-family="system-ui,sans-serif" fill="#495057">28</text><text x="749.2" y="284" text-anchor="middle" font-size="11" font-family="system-ui,sans-serif" fill="#495057">30</text><line x1="788" y1="76" x2="810" y2="76" stroke="#1f77b4" stroke-width="2"/><text x="816" y="80" font-size="11" font-family="system-ui,sans-serif" fill="#212529">Scalar keys</text><line x1="788" y1="94" x2="810" y2="94" stroke="#ff7f0e" stroke-width="2"/><text x="816" y="98" font-size="11" font-family="system-ui,sans-serif" fill="#212529">Scalar values</text><line x1="788" y1="112" x2="810" y2="112" stroke="#1f77b4" stroke-width="2" stroke-dasharray="5 3"/><text x="816" y="116" font-size="11" font-family="system-ui,sans-serif" fill="#212529">Pair keys</text><line x1="788" y1="130" x2="810" y2="130" stroke="#ff7f0e" stroke-width="2" stroke-dasharray="5 3"/><text x="816" y="134" font-size="11" font-family="system-ui,sans-serif" fill="#212529">Pair values</text><line x1="788" y1="152" x2="810" y2="152" stroke="#212529" stroke-width="1.2" stroke-dasharray="6 4"/><text x="816" y="156" font-size="11" font-family="system-ui,sans-serif" fill="#212529">Dense</text><text x="64" y="314" font-size="13" font-family="system-ui,sans-serif" fill="#212529">50% of each vector</text><line x1="64" y1="493.1" x2="772" y2="493.1" stroke="#212529" stroke-width="1.2" stroke-dasharray="6 4"/><polyline fill="none" stroke="#1f77b4" stroke-width="1.8" points="64.0,433.9 86.8,488.3 109.7,477.2 132.5,474.4 155.4,480.6 178.2,487.5 201.0,482.1 223.9,482.7 246.7,489.2 269.5,487.7 292.4,484.6 315.2,481.6 338.1,485.8 360.9,482.0 383.7,471.9 406.6,483.5 429.4,486.5 452.3,483.9 475.1,485.5 497.9,486.9 520.8,491.7 543.6,488.6 566.5,487.9 589.3,489.0 612.1,489.4 635.0,488.1 657.8,488.9 680.6,488.6 703.5,489.2 726.3,489.4 749.2,489.1 772.0,486.4"/><circle cx="64.0" cy="433.9" r="2.2" fill="#1f77b4"/><circle cx="86.8" cy="488.3" r="2.2" fill="#1f77b4"/><circle cx="109.7" cy="477.2" r="2.2" fill="#1f77b4"/><circle cx="132.5" cy="474.4" r="2.2" fill="#1f77b4"/><circle cx="155.4" cy="480.6" r="2.2" fill="#1f77b4"/><circle cx="178.2" cy="487.5" r="2.2" fill="#1f77b4"/><circle cx="201.0" cy="482.1" r="2.2" fill="#1f77b4"/><circle cx="223.9" cy="482.7" r="2.2" fill="#1f77b4"/><circle cx="246.7" cy="489.2" r="2.2" fill="#1f77b4"/><circle cx="269.5" cy="487.7" r="2.2" fill="#1f77b4"/><circle cx="292.4" cy="484.6" r="2.2" fill="#1f77b4"/><circle cx="315.2" cy="481.6" r="2.2" fill="#1f77b4"/><circle cx="338.1" cy="485.8" r="2.2" fill="#1f77b4"/><circle cx="360.9" cy="482.0" r="2.2" fill="#1f77b4"/><circle cx="383.7" cy="471.9" r="2.2" fill="#1f77b4"/><circle cx="406.6" cy="483.5" r="2.2" fill="#1f77b4"/><circle cx="429.4" cy="486.5" r="2.2" fill="#1f77b4"/><circle cx="452.3" cy="483.9" r="2.2" fill="#1f77b4"/><circle cx="475.1" cy="485.5" r="2.2" fill="#1f77b4"/><circle cx="497.9" cy="486.9" r="2.2" fill="#1f77b4"/><circle cx="520.8" cy="491.7" r="2.2" fill="#1f77b4"/><circle cx="543.6" cy="488.6" r="2.2" fill="#1f77b4"/><circle cx="566.5" cy="487.9" r="2.2" fill="#1f77b4"/><circle cx="589.3" cy="489.0" r="2.2" fill="#1f77b4"/><circle cx="612.1" cy="489.4" r="2.2" fill="#1f77b4"/><circle cx="635.0" cy="488.1" r="2.2" fill="#1f77b4"/><circle cx="657.8" cy="488.9" r="2.2" fill="#1f77b4"/><circle cx="680.6" cy="488.6" r="2.2" fill="#1f77b4"/><circle cx="703.5" cy="489.2" r="2.2" fill="#1f77b4"/><circle cx="726.3" cy="489.4" r="2.2" fill="#1f77b4"/><circle cx="749.2" cy="489.1" r="2.2" fill="#1f77b4"/><circle cx="772.0" cy="486.4" r="2.2" fill="#1f77b4"/><polyline fill="none" stroke="#ff7f0e" stroke-width="1.8" points="64.0,487.4 86.8,486.3 109.7,491.5 132.5,499.2 155.4,489.4 178.2,497.2 201.0,495.6 223.9,488.9 246.7,489.3 269.5,488.6 292.4,489.9 315.2,487.6 338.1,489.3 360.9,484.4 383.7,487.9 406.6,488.1 429.4,488.9 452.3,488.4 475.1,487.9 497.9,492.7 520.8,489.4 543.6,489.6 566.5,489.6 589.3,489.3 612.1,489.2 635.0,491.6 657.8,493.1 680.6,489.3 703.5,492.0 726.3,490.3 749.2,490.6 772.0,486.3"/><circle cx="64.0" cy="487.4" r="2.2" fill="#ff7f0e"/><circle cx="86.8" cy="486.3" r="2.2" fill="#ff7f0e"/><circle cx="109.7" cy="491.5" r="2.2" fill="#ff7f0e"/><circle cx="132.5" cy="499.2" r="2.2" fill="#ff7f0e"/><circle cx="155.4" cy="489.4" r="2.2" fill="#ff7f0e"/><circle cx="178.2" cy="497.2" r="2.2" fill="#ff7f0e"/><circle cx="201.0" cy="495.6" r="2.2" fill="#ff7f0e"/><circle cx="223.9" cy="488.9" r="2.2" fill="#ff7f0e"/><circle cx="246.7" cy="489.3" r="2.2" fill="#ff7f0e"/><circle cx="269.5" cy="488.6" r="2.2" fill="#ff7f0e"/><circle cx="292.4" cy="489.9" r="2.2" fill="#ff7f0e"/><circle cx="315.2" cy="487.6" r="2.2" fill="#ff7f0e"/><circle cx="338.1" cy="489.3" r="2.2" fill="#ff7f0e"/><circle cx="360.9" cy="484.4" r="2.2" fill="#ff7f0e"/><circle cx="383.7" cy="487.9" r="2.2" fill="#ff7f0e"/><circle cx="406.6" cy="488.1" r="2.2" fill="#ff7f0e"/><circle cx="429.4" cy="488.9" r="2.2" fill="#ff7f0e"/><circle cx="452.3" cy="488.4" r="2.2" fill="#ff7f0e"/><circle cx="475.1" cy="487.9" r="2.2" fill="#ff7f0e"/><circle cx="497.9" cy="492.7" r="2.2" fill="#ff7f0e"/><circle cx="520.8" cy="489.4" r="2.2" fill="#ff7f0e"/><circle cx="543.6" cy="489.6" r="2.2" fill="#ff7f0e"/><circle cx="566.5" cy="489.6" r="2.2" fill="#ff7f0e"/><circle cx="589.3" cy="489.3" r="2.2" fill="#ff7f0e"/><circle cx="612.1" cy="489.2" r="2.2" fill="#ff7f0e"/><circle cx="635.0" cy="491.6" r="2.2" fill="#ff7f0e"/><circle cx="657.8" cy="493.1" r="2.2" fill="#ff7f0e"/><circle cx="680.6" cy="489.3" r="2.2" fill="#ff7f0e"/><circle cx="703.5" cy="492.0" r="2.2" fill="#ff7f0e"/><circle cx="726.3" cy="490.3" r="2.2" fill="#ff7f0e"/><circle cx="749.2" cy="490.6" r="2.2" fill="#ff7f0e"/><circle cx="772.0" cy="486.3" r="2.2" fill="#ff7f0e"/><polyline fill="none" stroke="#1f77b4" stroke-width="1.8" stroke-dasharray="5 3" points="64.0,338.8 86.8,376.9 109.7,416.7 132.5,438.3 155.4,445.8 178.2,475.1 201.0,463.4 223.9,448.9 246.7,472.9 269.5,468.6 292.4,449.4 315.2,448.2 338.1,442.4 360.9,462.1 383.7,389.0 406.6,449.3 429.4,464.1 452.3,460.6 475.1,468.4 497.9,485.7 520.8,486.0 543.6,474.3 566.5,485.9 589.3,484.3 612.1,485.6 635.0,485.4 657.8,486.8 680.6,472.9 703.5,483.4 726.3,489.3 749.2,487.0 772.0,462.5"/><circle cx="64.0" cy="338.8" r="2.2" fill="#1f77b4"/><circle cx="86.8" cy="376.9" r="2.2" fill="#1f77b4"/><circle cx="109.7" cy="416.7" r="2.2" fill="#1f77b4"/><circle cx="132.5" cy="438.3" r="2.2" fill="#1f77b4"/><circle cx="155.4" cy="445.8" r="2.2" fill="#1f77b4"/><circle cx="178.2" cy="475.1" r="2.2" fill="#1f77b4"/><circle cx="201.0" cy="463.4" r="2.2" fill="#1f77b4"/><circle cx="223.9" cy="448.9" r="2.2" fill="#1f77b4"/><circle cx="246.7" cy="472.9" r="2.2" fill="#1f77b4"/><circle cx="269.5" cy="468.6" r="2.2" fill="#1f77b4"/><circle cx="292.4" cy="449.4" r="2.2" fill="#1f77b4"/><circle cx="315.2" cy="448.2" r="2.2" fill="#1f77b4"/><circle cx="338.1" cy="442.4" r="2.2" fill="#1f77b4"/><circle cx="360.9" cy="462.1" r="2.2" fill="#1f77b4"/><circle cx="383.7" cy="389.0" r="2.2" fill="#1f77b4"/><circle cx="406.6" cy="449.3" r="2.2" fill="#1f77b4"/><circle cx="429.4" cy="464.1" r="2.2" fill="#1f77b4"/><circle cx="452.3" cy="460.6" r="2.2" fill="#1f77b4"/><circle cx="475.1" cy="468.4" r="2.2" fill="#1f77b4"/><circle cx="497.9" cy="485.7" r="2.2" fill="#1f77b4"/><circle cx="520.8" cy="486.0" r="2.2" fill="#1f77b4"/><circle cx="543.6" cy="474.3" r="2.2" fill="#1f77b4"/><circle cx="566.5" cy="485.9" r="2.2" fill="#1f77b4"/><circle cx="589.3" cy="484.3" r="2.2" fill="#1f77b4"/><circle cx="612.1" cy="485.6" r="2.2" fill="#1f77b4"/><circle cx="635.0" cy="485.4" r="2.2" fill="#1f77b4"/><circle cx="657.8" cy="486.8" r="2.2" fill="#1f77b4"/><circle cx="680.6" cy="472.9" r="2.2" fill="#1f77b4"/><circle cx="703.5" cy="483.4" r="2.2" fill="#1f77b4"/><circle cx="726.3" cy="489.3" r="2.2" fill="#1f77b4"/><circle cx="749.2" cy="487.0" r="2.2" fill="#1f77b4"/><circle cx="772.0" cy="462.5" r="2.2" fill="#1f77b4"/><polyline fill="none" stroke="#ff7f0e" stroke-width="1.8" stroke-dasharray="5 3" points="64.0,479.9 86.8,476.3 109.7,490.3 132.5,494.0 155.4,484.0 178.2,498.6 201.0,492.6 223.9,487.4 246.7,492.0 269.5,488.1 292.4,483.7 315.2,483.1 338.1,480.4 360.9,477.0 383.7,484.4 406.6,485.1 429.4,481.8 452.3,486.8 475.1,485.1 497.9,486.7 520.8,489.7 543.6,488.9 566.5,488.6 589.3,489.3 612.1,489.8 635.0,488.2 657.8,492.0 680.6,489.7 703.5,488.2 726.3,489.8 749.2,490.1 772.0,458.5"/><circle cx="64.0" cy="479.9" r="2.2" fill="#ff7f0e"/><circle cx="86.8" cy="476.3" r="2.2" fill="#ff7f0e"/><circle cx="109.7" cy="490.3" r="2.2" fill="#ff7f0e"/><circle cx="132.5" cy="494.0" r="2.2" fill="#ff7f0e"/><circle cx="155.4" cy="484.0" r="2.2" fill="#ff7f0e"/><circle cx="178.2" cy="498.6" r="2.2" fill="#ff7f0e"/><circle cx="201.0" cy="492.6" r="2.2" fill="#ff7f0e"/><circle cx="223.9" cy="487.4" r="2.2" fill="#ff7f0e"/><circle cx="246.7" cy="492.0" r="2.2" fill="#ff7f0e"/><circle cx="269.5" cy="488.1" r="2.2" fill="#ff7f0e"/><circle cx="292.4" cy="483.7" r="2.2" fill="#ff7f0e"/><circle cx="315.2" cy="483.1" r="2.2" fill="#ff7f0e"/><circle cx="338.1" cy="480.4" r="2.2" fill="#ff7f0e"/><circle cx="360.9" cy="477.0" r="2.2" fill="#ff7f0e"/><circle cx="383.7" cy="484.4" r="2.2" fill="#ff7f0e"/><circle cx="406.6" cy="485.1" r="2.2" fill="#ff7f0e"/><circle cx="429.4" cy="481.8" r="2.2" fill="#ff7f0e"/><circle cx="452.3" cy="486.8" r="2.2" fill="#ff7f0e"/><circle cx="475.1" cy="485.1" r="2.2" fill="#ff7f0e"/><circle cx="497.9" cy="486.7" r="2.2" fill="#ff7f0e"/><circle cx="520.8" cy="489.7" r="2.2" fill="#ff7f0e"/><circle cx="543.6" cy="488.9" r="2.2" fill="#ff7f0e"/><circle cx="566.5" cy="488.6" r="2.2" fill="#ff7f0e"/><circle cx="589.3" cy="489.3" r="2.2" fill="#ff7f0e"/><circle cx="612.1" cy="489.8" r="2.2" fill="#ff7f0e"/><circle cx="635.0" cy="488.2" r="2.2" fill="#ff7f0e"/><circle cx="657.8" cy="492.0" r="2.2" fill="#ff7f0e"/><circle cx="680.6" cy="489.7" r="2.2" fill="#ff7f0e"/><circle cx="703.5" cy="488.2" r="2.2" fill="#ff7f0e"/><circle cx="726.3" cy="489.8" r="2.2" fill="#ff7f0e"/><circle cx="749.2" cy="490.1" r="2.2" fill="#ff7f0e"/><circle cx="772.0" cy="458.5" r="2.2" fill="#ff7f0e"/><text x="64.0" y="534" text-anchor="middle" font-size="11" font-family="system-ui,sans-serif" fill="#495057">0</text><text x="109.7" y="534" text-anchor="middle" font-size="11" font-family="system-ui,sans-serif" fill="#495057">2</text><text x="155.4" y="534" text-anchor="middle" font-size="11" font-family="system-ui,sans-serif" fill="#495057">4</text><text x="201.0" y="534" text-anchor="middle" font-size="11" font-family="system-ui,sans-serif" fill="#495057">6</text><text x="246.7" y="534" text-anchor="middle" font-size="11" font-family="system-ui,sans-serif" fill="#495057">8</text><text x="292.4" y="534" text-anchor="middle" font-size="11" font-family="system-ui,sans-serif" fill="#495057">10</text><text x="338.1" y="534" text-anchor="middle" font-size="11" font-family="system-ui,sans-serif" fill="#495057">12</text><text x="383.7" y="534" text-anchor="middle" font-size="11" font-family="system-ui,sans-serif" fill="#495057">14</text><text x="429.4" y="534" text-anchor="middle" font-size="11" font-family="system-ui,sans-serif" fill="#495057">16</text><text x="475.1" y="534" text-anchor="middle" font-size="11" font-family="system-ui,sans-serif" fill="#495057">18</text><text x="520.8" y="534" text-anchor="middle" font-size="11" font-family="system-ui,sans-serif" fill="#495057">20</text><text x="566.5" y="534" text-anchor="middle" font-size="11" font-family="system-ui,sans-serif" fill="#495057">22</text><text x="612.1" y="534" text-anchor="middle" font-size="11" font-family="system-ui,sans-serif" fill="#495057">24</text><text x="657.8" y="534" text-anchor="middle" font-size="11" font-family="system-ui,sans-serif" fill="#495057">26</text><text x="703.5" y="534" text-anchor="middle" font-size="11" font-family="system-ui,sans-serif" fill="#495057">28</text><text x="749.2" y="534" text-anchor="middle" font-size="11" font-family="system-ui,sans-serif" fill="#495057">30</text><line x1="788" y1="326" x2="810" y2="326" stroke="#1f77b4" stroke-width="2"/><text x="816" y="330" font-size="11" font-family="system-ui,sans-serif" fill="#212529">Scalar keys</text><line x1="788" y1="344" x2="810" y2="344" stroke="#ff7f0e" stroke-width="2"/><text x="816" y="348" font-size="11" font-family="system-ui,sans-serif" fill="#212529">Scalar values</text><line x1="788" y1="362" x2="810" y2="362" stroke="#1f77b4" stroke-width="2" stroke-dasharray="5 3"/><text x="816" y="366" font-size="11" font-family="system-ui,sans-serif" fill="#212529">Pair keys</text><line x1="788" y1="380" x2="810" y2="380" stroke="#ff7f0e" stroke-width="2" stroke-dasharray="5 3"/><text x="816" y="384" font-size="11" font-family="system-ui,sans-serif" fill="#212529">Pair values</text><line x1="788" y1="402" x2="810" y2="402" stroke="#212529" stroke-width="1.2" stroke-dasharray="6 4"/><text x="816" y="406" font-size="11" font-family="system-ui,sans-serif" fill="#212529">Dense</text><text x="64" y="564" font-size="13" font-family="system-ui,sans-serif" fill="#212529">75% of each vector</text><line x1="64" y1="749.1" x2="772" y2="749.1" stroke="#212529" stroke-width="1.2" stroke-dasharray="6 4"/><polyline fill="none" stroke="#1f77b4" stroke-width="1.8" points="64.0,739.3 86.8,741.8 109.7,744.2 132.5,747.7 155.4,747.5 178.2,748.0 201.0,747.7 223.9,747.6 246.7,748.3 269.5,747.9 292.4,747.7 315.2,747.6 338.1,747.3 360.9,747.9 383.7,744.5 406.6,747.7 429.4,748.1 452.3,748.0 475.1,748.1 497.9,748.6 520.8,748.8 543.6,748.2 566.5,748.7 589.3,748.8 612.1,748.9 635.0,748.8 657.8,748.9 680.6,748.1 703.5,748.7 726.3,748.7 749.2,748.7 772.0,747.9"/><circle cx="64.0" cy="739.3" r="2.2" fill="#1f77b4"/><circle cx="86.8" cy="741.8" r="2.2" fill="#1f77b4"/><circle cx="109.7" cy="744.2" r="2.2" fill="#1f77b4"/><circle cx="132.5" cy="747.7" r="2.2" fill="#1f77b4"/><circle cx="155.4" cy="747.5" r="2.2" fill="#1f77b4"/><circle cx="178.2" cy="748.0" r="2.2" fill="#1f77b4"/><circle cx="201.0" cy="747.7" r="2.2" fill="#1f77b4"/><circle cx="223.9" cy="747.6" r="2.2" fill="#1f77b4"/><circle cx="246.7" cy="748.3" r="2.2" fill="#1f77b4"/><circle cx="269.5" cy="747.9" r="2.2" fill="#1f77b4"/><circle cx="292.4" cy="747.7" r="2.2" fill="#1f77b4"/><circle cx="315.2" cy="747.6" r="2.2" fill="#1f77b4"/><circle cx="338.1" cy="747.3" r="2.2" fill="#1f77b4"/><circle cx="360.9" cy="747.9" r="2.2" fill="#1f77b4"/><circle cx="383.7" cy="744.5" r="2.2" fill="#1f77b4"/><circle cx="406.6" cy="747.7" r="2.2" fill="#1f77b4"/><circle cx="429.4" cy="748.1" r="2.2" fill="#1f77b4"/><circle cx="452.3" cy="748.0" r="2.2" fill="#1f77b4"/><circle cx="475.1" cy="748.1" r="2.2" fill="#1f77b4"/><circle cx="497.9" cy="748.6" r="2.2" fill="#1f77b4"/><circle cx="520.8" cy="748.8" r="2.2" fill="#1f77b4"/><circle cx="543.6" cy="748.2" r="2.2" fill="#1f77b4"/><circle cx="566.5" cy="748.7" r="2.2" fill="#1f77b4"/><circle cx="589.3" cy="748.8" r="2.2" fill="#1f77b4"/><circle cx="612.1" cy="748.9" r="2.2" fill="#1f77b4"/><circle cx="635.0" cy="748.8" r="2.2" fill="#1f77b4"/><circle cx="657.8" cy="748.9" r="2.2" fill="#1f77b4"/><circle cx="680.6" cy="748.1" r="2.2" fill="#1f77b4"/><circle cx="703.5" cy="748.7" r="2.2" fill="#1f77b4"/><circle cx="726.3" cy="748.7" r="2.2" fill="#1f77b4"/><circle cx="749.2" cy="748.7" r="2.2" fill="#1f77b4"/><circle cx="772.0" cy="747.9" r="2.2" fill="#1f77b4"/><polyline fill="none" stroke="#ff7f0e" stroke-width="1.8" points="64.0,748.6 86.8,748.4 109.7,749.1 132.5,749.1 155.4,748.7 178.2,749.2 201.0,749.0 223.9,748.9 246.7,748.9 269.5,748.8 292.4,748.8 315.2,748.6 338.1,748.7 360.9,748.1 383.7,748.6 406.6,748.7 429.4,748.7 452.3,748.7 475.1,748.7 497.9,748.9 520.8,749.0 543.6,749.0 566.5,749.0 589.3,749.0 612.1,749.0 635.0,749.0 657.8,749.0 680.6,749.0 703.5,749.0 726.3,748.9 749.2,749.0 772.0,747.6"/><circle cx="64.0" cy="748.6" r="2.2" fill="#ff7f0e"/><circle cx="86.8" cy="748.4" r="2.2" fill="#ff7f0e"/><circle cx="109.7" cy="749.1" r="2.2" fill="#ff7f0e"/><circle cx="132.5" cy="749.1" r="2.2" fill="#ff7f0e"/><circle cx="155.4" cy="748.7" r="2.2" fill="#ff7f0e"/><circle cx="178.2" cy="749.2" r="2.2" fill="#ff7f0e"/><circle cx="201.0" cy="749.0" r="2.2" fill="#ff7f0e"/><circle cx="223.9" cy="748.9" r="2.2" fill="#ff7f0e"/><circle cx="246.7" cy="748.9" r="2.2" fill="#ff7f0e"/><circle cx="269.5" cy="748.8" r="2.2" fill="#ff7f0e"/><circle cx="292.4" cy="748.8" r="2.2" fill="#ff7f0e"/><circle cx="315.2" cy="748.6" r="2.2" fill="#ff7f0e"/><circle cx="338.1" cy="748.7" r="2.2" fill="#ff7f0e"/><circle cx="360.9" cy="748.1" r="2.2" fill="#ff7f0e"/><circle cx="383.7" cy="748.6" r="2.2" fill="#ff7f0e"/><circle cx="406.6" cy="748.7" r="2.2" fill="#ff7f0e"/><circle cx="429.4" cy="748.7" r="2.2" fill="#ff7f0e"/><circle cx="452.3" cy="748.7" r="2.2" fill="#ff7f0e"/><circle cx="475.1" cy="748.7" r="2.2" fill="#ff7f0e"/><circle cx="497.9" cy="748.9" r="2.2" fill="#ff7f0e"/><circle cx="520.8" cy="749.0" r="2.2" fill="#ff7f0e"/><circle cx="543.6" cy="749.0" r="2.2" fill="#ff7f0e"/><circle cx="566.5" cy="749.0" r="2.2" fill="#ff7f0e"/><circle cx="589.3" cy="749.0" r="2.2" fill="#ff7f0e"/><circle cx="612.1" cy="749.0" r="2.2" fill="#ff7f0e"/><circle cx="635.0" cy="749.0" r="2.2" fill="#ff7f0e"/><circle cx="657.8" cy="749.0" r="2.2" fill="#ff7f0e"/><circle cx="680.6" cy="749.0" r="2.2" fill="#ff7f0e"/><circle cx="703.5" cy="749.0" r="2.2" fill="#ff7f0e"/><circle cx="726.3" cy="748.9" r="2.2" fill="#ff7f0e"/><circle cx="749.2" cy="749.0" r="2.2" fill="#ff7f0e"/><circle cx="772.0" cy="747.6" r="2.2" fill="#ff7f0e"/><polyline fill="none" stroke="#1f77b4" stroke-width="1.8" stroke-dasharray="5 3" points="64.0,741.6 86.8,588.8 109.7,741.4 132.5,746.7 155.4,746.7 178.2,747.5 201.0,747.1 223.9,746.4 246.7,747.7 269.5,746.7 292.4,747.1 315.2,746.6 338.1,745.5 360.9,747.1 383.7,741.1 406.6,746.8 429.4,747.2 452.3,747.6 475.1,747.5 497.9,748.4 520.8,748.5 543.6,747.9 566.5,748.4 589.3,748.5 612.1,748.6 635.0,748.5 657.8,748.7 680.6,747.8 703.5,748.5 726.3,748.1 749.2,748.4 772.0,746.7"/><circle cx="64.0" cy="741.6" r="2.2" fill="#1f77b4"/><circle cx="86.8" cy="588.8" r="2.2" fill="#1f77b4"/><circle cx="109.7" cy="741.4" r="2.2" fill="#1f77b4"/><circle cx="132.5" cy="746.7" r="2.2" fill="#1f77b4"/><circle cx="155.4" cy="746.7" r="2.2" fill="#1f77b4"/><circle cx="178.2" cy="747.5" r="2.2" fill="#1f77b4"/><circle cx="201.0" cy="747.1" r="2.2" fill="#1f77b4"/><circle cx="223.9" cy="746.4" r="2.2" fill="#1f77b4"/><circle cx="246.7" cy="747.7" r="2.2" fill="#1f77b4"/><circle cx="269.5" cy="746.7" r="2.2" fill="#1f77b4"/><circle cx="292.4" cy="747.1" r="2.2" fill="#1f77b4"/><circle cx="315.2" cy="746.6" r="2.2" fill="#1f77b4"/><circle cx="338.1" cy="745.5" r="2.2" fill="#1f77b4"/><circle cx="360.9" cy="747.1" r="2.2" fill="#1f77b4"/><circle cx="383.7" cy="741.1" r="2.2" fill="#1f77b4"/><circle cx="406.6" cy="746.8" r="2.2" fill="#1f77b4"/><circle cx="429.4" cy="747.2" r="2.2" fill="#1f77b4"/><circle cx="452.3" cy="747.6" r="2.2" fill="#1f77b4"/><circle cx="475.1" cy="747.5" r="2.2" fill="#1f77b4"/><circle cx="497.9" cy="748.4" r="2.2" fill="#1f77b4"/><circle cx="520.8" cy="748.5" r="2.2" fill="#1f77b4"/><circle cx="543.6" cy="747.9" r="2.2" fill="#1f77b4"/><circle cx="566.5" cy="748.4" r="2.2" fill="#1f77b4"/><circle cx="589.3" cy="748.5" r="2.2" fill="#1f77b4"/><circle cx="612.1" cy="748.6" r="2.2" fill="#1f77b4"/><circle cx="635.0" cy="748.5" r="2.2" fill="#1f77b4"/><circle cx="657.8" cy="748.7" r="2.2" fill="#1f77b4"/><circle cx="680.6" cy="747.8" r="2.2" fill="#1f77b4"/><circle cx="703.5" cy="748.5" r="2.2" fill="#1f77b4"/><circle cx="726.3" cy="748.1" r="2.2" fill="#1f77b4"/><circle cx="749.2" cy="748.4" r="2.2" fill="#1f77b4"/><circle cx="772.0" cy="746.7" r="2.2" fill="#1f77b4"/><polyline fill="none" stroke="#ff7f0e" stroke-width="1.8" stroke-dasharray="5 3" points="64.0,747.7 86.8,747.8 109.7,749.0 132.5,748.6 155.4,748.3 178.2,749.1 201.0,748.9 223.9,748.8 246.7,748.7 269.5,748.3 292.4,748.2 315.2,748.1 338.1,748.0 360.9,747.4 383.7,747.9 406.6,748.1 429.4,748.1 452.3,748.3 475.1,748.3 497.9,748.8 520.8,748.9 543.6,748.8 566.5,749.0 589.3,748.9 612.1,748.9 635.0,748.9 657.8,748.9 680.6,748.8 703.5,748.8 726.3,748.8 749.2,748.9 772.0,746.2"/><circle cx="64.0" cy="747.7" r="2.2" fill="#ff7f0e"/><circle cx="86.8" cy="747.8" r="2.2" fill="#ff7f0e"/><circle cx="109.7" cy="749.0" r="2.2" fill="#ff7f0e"/><circle cx="132.5" cy="748.6" r="2.2" fill="#ff7f0e"/><circle cx="155.4" cy="748.3" r="2.2" fill="#ff7f0e"/><circle cx="178.2" cy="749.1" r="2.2" fill="#ff7f0e"/><circle cx="201.0" cy="748.9" r="2.2" fill="#ff7f0e"/><circle cx="223.9" cy="748.8" r="2.2" fill="#ff7f0e"/><circle cx="246.7" cy="748.7" r="2.2" fill="#ff7f0e"/><circle cx="269.5" cy="748.3" r="2.2" fill="#ff7f0e"/><circle cx="292.4" cy="748.2" r="2.2" fill="#ff7f0e"/><circle cx="315.2" cy="748.1" r="2.2" fill="#ff7f0e"/><circle cx="338.1" cy="748.0" r="2.2" fill="#ff7f0e"/><circle cx="360.9" cy="747.4" r="2.2" fill="#ff7f0e"/><circle cx="383.7" cy="747.9" r="2.2" fill="#ff7f0e"/><circle cx="406.6" cy="748.1" r="2.2" fill="#ff7f0e"/><circle cx="429.4" cy="748.1" r="2.2" fill="#ff7f0e"/><circle cx="452.3" cy="748.3" r="2.2" fill="#ff7f0e"/><circle cx="475.1" cy="748.3" r="2.2" fill="#ff7f0e"/><circle cx="497.9" cy="748.8" r="2.2" fill="#ff7f0e"/><circle cx="520.8" cy="748.9" r="2.2" fill="#ff7f0e"/><circle cx="543.6" cy="748.8" r="2.2" fill="#ff7f0e"/><circle cx="566.5" cy="749.0" r="2.2" fill="#ff7f0e"/><circle cx="589.3" cy="748.9" r="2.2" fill="#ff7f0e"/><circle cx="612.1" cy="748.9" r="2.2" fill="#ff7f0e"/><circle cx="635.0" cy="748.9" r="2.2" fill="#ff7f0e"/><circle cx="657.8" cy="748.9" r="2.2" fill="#ff7f0e"/><circle cx="680.6" cy="748.8" r="2.2" fill="#ff7f0e"/><circle cx="703.5" cy="748.8" r="2.2" fill="#ff7f0e"/><circle cx="726.3" cy="748.8" r="2.2" fill="#ff7f0e"/><circle cx="749.2" cy="748.9" r="2.2" fill="#ff7f0e"/><circle cx="772.0" cy="746.2" r="2.2" fill="#ff7f0e"/><text x="64.0" y="784" text-anchor="middle" font-size="11" font-family="system-ui,sans-serif" fill="#495057">0</text><text x="109.7" y="784" text-anchor="middle" font-size="11" font-family="system-ui,sans-serif" fill="#495057">2</text><text x="155.4" y="784" text-anchor="middle" font-size="11" font-family="system-ui,sans-serif" fill="#495057">4</text><text x="201.0" y="784" text-anchor="middle" font-size="11" font-family="system-ui,sans-serif" fill="#495057">6</text><text x="246.7" y="784" text-anchor="middle" font-size="11" font-family="system-ui,sans-serif" fill="#495057">8</text><text x="292.4" y="784" text-anchor="middle" font-size="11" font-family="system-ui,sans-serif" fill="#495057">10</text><text x="338.1" y="784" text-anchor="middle" font-size="11" font-family="system-ui,sans-serif" fill="#495057">12</text><text x="383.7" y="784" text-anchor="middle" font-size="11" font-family="system-ui,sans-serif" fill="#495057">14</text><text x="429.4" y="784" text-anchor="middle" font-size="11" font-family="system-ui,sans-serif" fill="#495057">16</text><text x="475.1" y="784" text-anchor="middle" font-size="11" font-family="system-ui,sans-serif" fill="#495057">18</text><text x="520.8" y="784" text-anchor="middle" font-size="11" font-family="system-ui,sans-serif" fill="#495057">20</text><text x="566.5" y="784" text-anchor="middle" font-size="11" font-family="system-ui,sans-serif" fill="#495057">22</text><text x="612.1" y="784" text-anchor="middle" font-size="11" font-family="system-ui,sans-serif" fill="#495057">24</text><text x="657.8" y="784" text-anchor="middle" font-size="11" font-family="system-ui,sans-serif" fill="#495057">26</text><text x="703.5" y="784" text-anchor="middle" font-size="11" font-family="system-ui,sans-serif" fill="#495057">28</text><text x="749.2" y="784" text-anchor="middle" font-size="11" font-family="system-ui,sans-serif" fill="#495057">30</text><line x1="788" y1="576" x2="810" y2="576" stroke="#1f77b4" stroke-width="2"/><text x="816" y="580" font-size="11" font-family="system-ui,sans-serif" fill="#212529">Scalar keys</text><line x1="788" y1="594" x2="810" y2="594" stroke="#ff7f0e" stroke-width="2"/><text x="816" y="598" font-size="11" font-family="system-ui,sans-serif" fill="#212529">Scalar values</text><line x1="788" y1="612" x2="810" y2="612" stroke="#1f77b4" stroke-width="2" stroke-dasharray="5 3"/><text x="816" y="616" font-size="11" font-family="system-ui,sans-serif" fill="#212529">Pair keys</text><line x1="788" y1="630" x2="810" y2="630" stroke="#ff7f0e" stroke-width="2" stroke-dasharray="5 3"/><text x="816" y="634" font-size="11" font-family="system-ui,sans-serif" fill="#212529">Pair values</text><line x1="788" y1="652" x2="810" y2="652" stroke="#212529" stroke-width="1.2" stroke-dasharray="6 4"/><text x="816" y="656" font-size="11" font-family="system-ui,sans-serif" fill="#212529">Dense</text></svg>